<?xml version="1.0" encoding="utf-8"?>
<!-- Generator: Adobe Illustrator 15.0.0, SVG Export Plug-In . SVG Version: 6.00 Build 0)  -->
<!DOCTYPE svg PUBLIC "-//W3C//DTD SVG 1.1//EN" "http://www.w3.org/Graphics/SVG/1.1/DTD/svg11.dtd">
<svg version="1.1" id="Layer_1" xmlns="http://www.w3.org/2000/svg" xmlns:xlink="http://www.w3.org/1999/xlink" x="0px" y="0px"
	 width="72px" height="72px" viewBox="0 0 72 72" enable-background="new 0 0 72 72" xml:space="preserve">
<path fill="#FFFFFF" stroke="#000000" stroke-miterlimit="10" d="M72,59.994c0,6.627-5.373,12-12,12H12.474c-6.627,0-12-5.373-12-12
	V12.467c0-6.627,5.373-12,12-12H60c6.627,0,12,5.373,12,12V59.994z"/>
<g>
	<path d="M23.91,27.69h-8.218v12.327H7.475V11.255h24.653v4.109H15.692v8.218h8.218V27.69z"/>
	<path d="M60.89,19.473v4.109H56.78v16.436h-8.218V23.582h4.109v-4.109h4.108v-4.109h-8.218v4.109h-8.218v-8.218h24.653v8.218H60.89
		z"/>
</g>
<g>
	<path d="M15.073,52.973h-3.848v5.772H7.376V45.277h3.848v5.771h3.848v-5.771h3.848v13.468h-3.848V52.973z"/>
	<path d="M34.313,51.049v3.849h-7.696v1.924h5.772v1.924h-7.696v-1.924h-1.924v-5.772h1.924v-1.924h7.696v1.924H34.313z
		 M26.617,52.973h3.848v-1.924h-3.848V52.973z"/>
	<path d="M45.856,56.821h1.924v1.924h-7.696v-1.924h1.925v-7.696h-1.925v-1.924h5.772V56.821z"/>
	<path d="M65.097,51.049v3.849h-1.924v1.924h-5.771v3.848h-3.849V49.125h9.62v1.924H65.097z M57.401,54.897h3.848v-3.849h-3.848
		V54.897z"/>
</g>
</svg>
