<?xml version="1.0" standalone="no"?>
<!DOCTYPE svg PUBLIC "-//W3C//DTD SVG 20010904//EN"
 "http://www.w3.org/TR/2001/REC-SVG-20010904/DTD/svg10.dtd">
<svg version="1.0" xmlns="http://www.w3.org/2000/svg"
 width="385.000000pt" height="352.000000pt" viewBox="0 0 385.000000 352.000000"
 preserveAspectRatio="xMidYMid meet">

<g transform="translate(0.000000,352.000000) scale(0.100000,-0.100000)"
fill="#000000" stroke="none">
<path d="M95 3481 c-11 -5 -32 -23 -48 -40 l-27 -31 0 -1194 c0 -938 3 -1196
13 -1199 9 -4 9 -6 0 -6 -15 -1 -18 -41 -3 -41 7 0 10 -143 10 -410 0 -289 3
-417 12 -435 6 -14 34 -40 62 -57 l51 -33 1793 -3 c1774 -2 1794 -2 1822 18
55 39 54 7 46 978 -7 1010 -13 1626 -21 2035 -6 299 -6 299 -63 367 l-29 34
-174 7 c-273 11 -3422 20 -3444 10z m2597 -25 c554 -3 977 -10 991 -15 13 -5
33 -21 44 -35 19 -24 20 -47 26 -523 4 -274 9 -824 12 -1223 3 -399 8 -900 10
-1113 6 -423 5 -430 -50 -455 -21 -10 -421 -12 -1787 -12 -968 0 -1772 3
-1787 7 -43 10 -69 33 -80 66 -9 29 -21 1593 -22 2809 0 407 1 439 18 462 10
14 28 29 40 33 25 9 1068 8 2585 -1z"/>
<path d="M270 3251 c0 -5 7 -11 15 -15 12 -4 15 -23 15 -85 0 -44 -4 -83 -10
-86 -6 -3 -10 -1 -10 4 0 6 -9 11 -21 11 -34 0 -19 -34 17 -38 45 -4 56 16 59
109 3 64 7 83 22 94 16 13 13 14 -34 15 -29 0 -53 -4 -53 -9z"/>
<path d="M962 3244 c4 -21 22 -23 26 -1 2 10 -3 17 -13 17 -10 0 -15 -6 -13
-16z"/>
<path d="M1181 3251 c-9 -6 -10 -11 -2 -15 15 -10 15 -168 -1 -184 -9 -9 -3
-12 29 -12 l42 0 -15 28 c-21 42 -17 50 10 17 13 -16 22 -33 19 -37 -2 -5 14
-8 37 -8 25 0 39 4 35 10 -3 6 -12 10 -18 10 -7 0 -25 16 -41 36 l-29 37 24
18 c13 10 29 19 36 19 6 0 15 5 18 10 4 6 -8 10 -29 10 -25 0 -36 -5 -36 -15
0 -8 -9 -19 -19 -25 -18 -9 -19 -6 -17 50 2 62 -7 73 -43 51z"/>
<path d="M2693 3252 c-22 -3 -33 -22 -13 -22 6 0 10 -10 10 -23 0 -20 -5 -24
-32 -24 -61 0 -93 -88 -48 -133 17 -17 29 -20 77 -15 61 5 75 12 54 24 -9 6
-12 35 -12 99 0 50 -3 93 -7 94 -4 2 -17 2 -29 0z m-8 -147 c0 -43 -3 -50 -20
-50 -27 0 -50 44 -41 79 5 22 11 27 34 24 25 -3 27 -6 27 -53z"/>
<path d="M3286 3241 c-14 -5 -16 -10 -8 -15 8 -5 12 -38 12 -96 0 -89 0 -90
28 -97 44 -11 66 -6 90 22 28 33 28 65 1 100 -18 22 -27 26 -53 21 -30 -6 -31
-5 -31 31 0 39 -8 46 -39 34z m94 -94 c0 -1 4 -17 9 -35 8 -28 7 -36 -10 -53
-15 -15 -24 -17 -39 -9 -15 8 -18 18 -15 48 2 20 4 40 4 45 1 6 51 11 51 4z"/>
<path d="M863 3206 c-13 -16 -20 -33 -16 -40 4 -6 8 -24 9 -41 1 -16 2 -42 3
-57 1 -29 19 -36 55 -22 23 9 20 26 -4 19 -18 -6 -20 -2 -20 49 0 43 3 56 15
56 8 0 15 5 15 10 0 6 -6 10 -14 10 -8 0 -16 10 -18 22 -3 22 -4 22 -25 -6z"/>
<path d="M425 3188 c-32 -17 -45 -39 -45 -75 0 -72 89 -100 133 -41 18 24 19
32 8 67 -6 22 -15 42 -19 44 -21 12 -59 15 -77 5z m52 -30 c18 -23 23 -64 10
-82 -31 -42 -91 20 -68 70 11 26 42 32 58 12z"/>
<path d="M1054 3176 c-53 -45 -27 -136 38 -136 27 0 76 36 64 48 -4 3 -12 0
-18 -6 -16 -16 -53 -15 -67 2 -7 8 -11 30 -9 48 2 26 8 34 27 36 15 2 28 -3
33 -12 13 -22 28 -20 28 4 0 13 -10 24 -26 30 -35 14 -39 13 -70 -14z"/>
<path d="M540 3180 c0 -5 4 -10 8 -10 5 0 21 -26 36 -59 33 -68 29 -98 -12
-103 -30 -3 -33 -17 -9 -32 25 -16 50 15 88 109 18 47 37 85 41 85 5 0 8 5 8
10 0 6 -12 10 -26 10 -19 0 -25 -4 -20 -15 3 -8 -1 -31 -8 -52 l-13 -38 -17
34 c-10 18 -16 42 -13 52 4 16 0 19 -29 19 -19 0 -34 -4 -34 -10z"/>
<path d="M732 3178 c-23 -23 -14 -54 23 -74 20 -10 34 -25 33 -33 -5 -24 -25
-23 -47 0 l-21 23 0 -28 c0 -26 2 -27 48 -24 45 3 47 4 47 33 0 22 -8 34 -32
50 -18 11 -32 26 -33 33 0 18 37 14 44 -5 6 -14 9 -15 16 -4 4 8 6 20 3 28 -6
16 -65 17 -81 1z"/>
<path d="M958 3183 c-19 -5 -25 -23 -8 -23 14 0 12 -94 -2 -108 -9 -9 -3 -12
27 -12 30 0 36 3 27 12 -7 7 -12 39 -12 75 0 35 -3 62 -7 62 -5 -1 -16 -3 -25
-6z"/>
<path d="M1460 3168 c-24 -26 -26 -75 -4 -106 20 -29 74 -30 99 -2 22 24 13
39 -10 17 -15 -16 -37 -14 -62 6 -16 12 -17 59 -1 75 17 17 45 15 52 -3 8 -21
26 -19 26 4 0 37 -68 43 -100 9z"/>
<path d="M1612 3167 c-27 -28 -29 -77 -4 -107 25 -31 88 -32 113 -1 62 76 -43
179 -109 108z m76 -9 c18 -18 15 -95 -3 -102 -12 -4 -45 1 -45 8 0 0 -4 15 -9
31 -16 56 22 98 57 63z"/>
<path d="M1768 3182 c-19 -4 -25 -22 -8 -22 15 0 13 -107 -2 -113 -7 -3 3 -6
23 -6 37 -1 37 -1 29 32 -12 57 -6 82 21 82 22 0 24 -5 27 -49 2 -32 -1 -52
-10 -57 -8 -6 1 -9 26 -9 30 0 36 3 28 13 -6 7 -10 33 -9 57 2 41 4 45 27 45
22 0 25 -4 26 -40 1 -22 -2 -48 -7 -57 -9 -16 -5 -18 28 -17 21 0 32 3 26 6
-8 3 -13 24 -13 57 0 29 -6 61 -14 72 -13 17 -18 18 -47 7 -19 -7 -37 -9 -43
-4 -11 8 -72 10 -108 3z"/>
<path d="M2081 3181 c-8 -5 -20 -7 -28 -4 -20 8 -45 -5 -37 -19 11 -18 13 -69
3 -95 -10 -28 3 -37 39 -28 18 4 22 9 13 14 -8 5 -11 25 -9 57 3 45 5 49 28
49 22 0 25 -4 25 -35 0 -19 -3 -45 -7 -57 -6 -19 -3 -24 18 -29 14 -4 30 -2
37 5 8 8 8 11 -2 11 -8 0 -11 16 -9 53 3 45 6 52 26 55 15 2 22 -2 23 -15 3
-33 2 -68 -2 -87 -3 -14 3 -19 23 -22 15 -1 30 2 33 7 4 5 1 9 -4 9 -6 0 -11
21 -11 48 0 26 -7 57 -15 69 -15 21 -23 22 -71 8 -12 -4 -25 -2 -28 4 -9 13
-26 14 -45 2z"/>
<path d="M2313 3180 c-13 -6 -23 -18 -23 -30 0 -26 14 -25 33 3 14 19 18 20
26 7 15 -22 14 -28 -11 -36 -52 -15 -74 -58 -43 -84 11 -9 22 -10 38 -3 15 7
27 7 39 -1 13 -8 21 -7 30 3 10 11 10 14 1 18 -8 3 -13 25 -13 59 0 49 -2 55
-26 64 -14 6 -26 10 -27 9 -1 0 -12 -4 -24 -9z m47 -95 c0 -18 -5 -25 -19 -25
-28 0 -37 21 -16 37 27 19 35 16 35 -12z"/>
<path d="M2496 3183 c-4 -4 -22 -6 -41 -5 -18 1 -36 -2 -40 -8 -3 -5 -1 -10 5
-10 8 0 11 -21 9 -62 -3 -62 -2 -63 24 -63 21 -1 26 3 22 16 -21 66 -6 119 30
105 19 -7 22 -106 3 -106 -23 0 2 -13 32 -16 28 -3 31 -2 24 19 -4 12 -6 39
-6 60 2 48 -38 94 -62 70z"/>
<path d="M2852 3173 c2 -5 18 -39 36 -76 18 -38 36 -66 42 -62 5 3 10 10 10
15 0 6 13 37 29 70 l29 60 -24 0 c-14 0 -22 -4 -19 -10 7 -11 -15 -80 -25 -80
-10 0 -32 69 -25 80 4 6 -7 10 -25 10 -18 0 -30 -3 -28 -7z"/>
<path d="M3031 3149 c-48 -78 31 -156 100 -100 30 24 19 38 -14 17 -28 -19
-54 -13 -63 16 -8 26 12 39 49 32 39 -6 50 3 36 29 -26 49 -80 52 -108 6z m64
1 c4 -6 -5 -10 -20 -10 -15 0 -24 4 -20 10 3 6 12 10 20 10 8 0 17 -4 20 -10z"/>
<path d="M3183 3172 c-22 -3 -33 -22 -13 -22 14 0 12 -94 -2 -108 -9 -9 -2
-12 32 -12 40 0 42 1 29 18 -8 9 -14 24 -13 32 1 8 2 27 3 42 1 22 5 27 23 25
14 -1 23 4 26 16 4 17 -13 19 -85 9z"/>
<path d="M3462 3168 c-23 -23 -14 -55 24 -77 34 -20 41 -40 17 -48 -7 -3 -21
5 -32 16 -21 21 -35 14 -25 -14 5 -12 17 -15 53 -13 44 3 46 4 46 33 0 23 -8
35 -37 54 -37 24 -42 41 -11 41 9 0 22 -8 30 -17 12 -17 13 -16 11 7 -2 20 -9
26 -33 28 -17 2 -36 -3 -43 -10z"/>
<path d="M1743 2476 c-23 -20 -28 -32 -27 -67 2 -53 37 -89 88 -89 43 0 62 17
69 63 6 36 5 37 -25 37 -25 0 -28 -2 -18 -14 6 -8 10 -25 8 -38 -7 -53 -88
-21 -88 35 0 66 61 103 93 56 l15 -21 7 21 c10 31 -2 41 -50 41 -32 0 -52 -7
-72 -24z"/>
<path d="M1927 2480 c-34 -27 -43 -70 -23 -109 30 -57 91 -68 131 -25 35 38
34 87 -4 125 -35 34 -68 37 -104 9z m77 -13 c25 -18 26 -95 1 -113 -40 -30
-75 -3 -75 56 0 58 35 86 74 57z"/>
<path d="M1890 2280 c0 -6 -16 -45 -35 -86 -19 -41 -35 -79 -35 -84 0 -5 11
-12 25 -16 24 -6 25 -10 25 -79 l0 -72 -62 -7 c-66 -6 -208 -66 -208 -86 0
-22 29 -21 77 4 27 13 85 32 128 41 103 21 188 9 294 -42 88 -42 95 -44 99
-22 6 34 -115 87 -260 114 -27 5 -28 8 -28 69 l0 63 40 12 c22 6 40 15 40 20
0 18 -82 181 -90 181 -6 0 -10 -5 -10 -10z"/>
<path d="M2280 1729 c0 -6 11 -29 24 -52 88 -152 89 -346 1 -479 -29 -44 -31
-54 -10 -62 30 -11 100 131 111 229 l7 55 77 0 78 0 6 -35 c4 -19 11 -35 16
-35 15 0 190 82 190 89 0 8 -170 81 -187 81 -7 0 -15 -15 -18 -32 l-6 -33 -78
3 -79 3 -6 50 c-12 90 -80 229 -111 229 -8 0 -15 -5 -15 -11z"/>
<path d="M1429 1656 c-17 -36 -35 -94 -41 -130 l-11 -66 -64 0 c-52 0 -65 3
-69 18 -17 54 -13 53 -109 12 -49 -22 -91 -43 -93 -48 -3 -10 154 -82 179 -82
10 0 19 11 23 30 5 30 6 30 71 30 45 0 65 -4 66 -12 7 -79 20 -119 66 -212 30
-60 36 -67 49 -54 13 13 12 20 -10 59 -51 88 -69 163 -64 263 5 85 15 122 64
232 3 6 -2 14 -11 18 -12 4 -23 -9 -46 -58z"/>
<path d="M1831 1708 c-110 -19 -199 -113 -216 -230 -16 -106 59 -231 167 -278
66 -28 170 -25 234 8 160 82 192 303 63 430 -60 58 -157 86 -248 70z m122 -42
c102 -37 168 -124 168 -222 1 -170 -184 -276 -342 -196 -60 30 -114 98 -125
159 -30 160 146 313 299 259z"/>
<path d="M479 1526 c13 -16 21 -125 9 -132 -18 -11 -6 -24 22 -24 17 0 30 5
30 10 0 6 -4 10 -10 10 -5 0 -10 11 -10 25 0 20 5 25 25 25 27 0 65 32 65 54
0 30 -30 46 -87 46 -45 0 -53 -2 -44 -14z m89 -18 c16 -16 -3 -48 -28 -48 -16
0 -20 7 -20 30 0 22 5 30 18 30 10 0 23 -5 30 -12z"/>
<path d="M618 1528 c7 -7 12 -36 12 -66 0 -76 11 -92 64 -92 56 0 69 16 70 88
1 31 5 63 9 70 6 8 1 12 -18 12 -21 0 -24 -3 -17 -17 5 -10 6 -43 3 -73 -6
-52 -8 -55 -35 -58 -16 -2 -32 2 -37 10 -13 20 -11 112 3 126 9 9 3 12 -27 12
-30 0 -36 -3 -27 -12z"/>
<path d="M790 1513 c1 -25 2 -26 14 -10 7 9 21 17 30 17 13 0 16 -11 16 -63 0
-36 -5 -68 -12 -75 -9 -9 -4 -12 26 -12 32 0 37 3 31 18 -4 9 -10 41 -12 69
-4 44 -2 54 12 60 11 4 22 0 30 -10 15 -20 25 -13 18 14 -5 17 -14 19 -79 19
l-74 0 0 -27z"/>
<path d="M2943 1525 c-29 -20 -42 -63 -31 -103 11 -42 60 -68 112 -58 31 6 36
11 36 36 0 15 3 35 6 44 5 12 0 16 -19 16 -24 0 -25 -3 -20 -35 4 -27 2 -36
-11 -41 -27 -11 -64 12 -70 44 -15 67 47 121 85 74 23 -29 29 -28 29 6 0 27
-2 29 -48 31 -28 1 -56 -5 -69 -14z"/>
<path d="M3080 1530 c0 -5 5 -10 10 -10 6 0 10 -30 10 -70 0 -48 -4 -70 -12
-70 -8 0 -9 -3 -1 -11 5 -5 38 -9 74 -7 60 3 64 5 68 28 3 24 2 24 -16 7 -23
-20 -56 -22 -72 -3 -27 32 27 64 57 34 9 -9 12 -5 12 20 0 18 -4 32 -10 32 -5
0 -10 -4 -10 -10 0 -16 -47 -12 -54 5 -14 38 33 55 69 25 13 -10 15 -8 15 14
0 26 -1 26 -70 26 -40 0 -70 -4 -70 -10z"/>
<path d="M3240 1507 c1 -27 2 -29 11 -14 14 24 36 21 43 -5 9 -36 7 -96 -4
-103 -21 -13 -9 -25 25 -25 33 0 48 14 24 22 -6 2 -9 31 -7 73 l3 70 22 -22
c25 -25 32 -22 26 11 -5 22 -9 24 -74 24 l-69 0 0 -31z"/>
<path d="M1590 1041 c0 -32 189 -111 268 -111 22 0 23 -2 20 -72 -3 -67 -5
-73 -25 -76 -13 -2 -23 -7 -23 -12 0 -11 82 -202 85 -198 6 8 85 192 85 198 0
5 -18 11 -40 15 l-40 7 0 67 0 67 65 11 c66 11 196 65 217 90 17 21 -6 42 -30
25 -140 -98 -358 -107 -508 -22 -60 35 -74 37 -74 11z"/>
<path d="M1965 539 c-40 -11 -55 -34 -55 -81 0 -75 75 -113 134 -67 20 16 26
29 26 59 0 52 -8 68 -41 85 -15 8 -29 15 -31 14 -2 0 -16 -5 -33 -10z m69 -62
c10 -40 -12 -87 -41 -87 -49 0 -72 81 -33 120 28 28 62 13 74 -33z"/>
<path d="M1731 524 c12 -15 14 -99 3 -138 -6 -17 -1 -18 56 -14 53 4 67 9 87
32 30 36 30 80 -2 111 -21 22 -33 25 -91 25 -59 0 -65 -2 -53 -16z m106 -12
c19 -12 31 -55 22 -80 -9 -23 -54 -47 -70 -36 -5 3 -9 32 -9 65 0 55 2 59 23
59 12 0 27 -4 34 -8z"/>
</g>
</svg>
